<?xml version="1.0" encoding="utf-8"?>
<!-- Generator: Adobe Illustrator 24.0.1, SVG Export Plug-In . SVG Version: 6.00 Build 0)  -->
<svg version="1.1" id="Слой_1" xmlns="http://www.w3.org/2000/svg" xmlns:xlink="http://www.w3.org/1999/xlink" x="0px" y="0px"
	 viewBox="0 0 88.04 24.24" style="enable-background:new 0 0 88.04 24.24;" xml:space="preserve">
<style type="text/css">
	.st0{fill:none;stroke:#FFFFFF;stroke-width:1.5;stroke-miterlimit:10;}
	.st1{fill:#FFFFFF;stroke:#FFFFFF;stroke-width:0.75;stroke-miterlimit:10;}
</style>
<circle class="st0" cx="12.13" cy="12.21" r="11.05"/>
<g>
	<path class="st1" d="M12.65,8.17v8.08h-1.04V8.17H12.65z"/>
</g>
<g>
	<path class="st1" d="M28.69,16.5h-1.14V7.91h1.14V16.5z"/>
	<path class="st1" d="M37.86,16.5H36.7l-4.5-6.78v6.78h-1.08V7.91h1.16l4.5,6.78V7.91h1.08V16.5z"/>
	<path class="st1" d="M43.41,16.65c-1.21,0-2.12-0.27-2.72-0.81c-0.6-0.54-0.92-1.24-0.95-2.09h1.1c0.06,0.64,0.33,1.11,0.8,1.42
		c0.47,0.31,1.05,0.46,1.72,0.46c0.64,0,1.15-0.13,1.54-0.39c0.39-0.26,0.58-0.62,0.58-1.07c0-0.47-0.2-0.82-0.6-1.03
		s-1.09-0.43-2.08-0.64s-1.69-0.5-2.12-0.87s-0.64-0.87-0.64-1.48c0-0.7,0.28-1.27,0.83-1.71s1.3-0.67,2.22-0.67
		c0.97,0,1.75,0.22,2.34,0.67s0.91,1.08,0.94,1.9h-1.11c-0.11-1.04-0.82-1.56-2.13-1.56c-0.63,0-1.12,0.12-1.47,0.36
		s-0.52,0.55-0.52,0.95c0,0.36,0.14,0.63,0.42,0.81s0.8,0.35,1.56,0.52s1.37,0.33,1.82,0.5s0.83,0.42,1.15,0.76s0.48,0.81,0.48,1.39
		c0,0.74-0.29,1.35-0.88,1.84C45.12,16.41,44.36,16.65,43.41,16.65z"/>
	<path class="st1" d="M54.96,16.5h-6.4V7.91h6.21v1.02h-5.07v2.63h4.74v1.02h-4.74v2.91h5.27V16.5z"/>
	<path class="st1" d="M62.26,16.5h-5.31V7.91h1.14v7.57h4.18V16.5z"/>
	<path class="st1" d="M77.71,16.5h-5.31V7.91h1.14v7.57h4.18V16.5z"/>
	<path class="st1" d="M83.17,7.77c1.2,0,2.19,0.41,2.95,1.22s1.15,1.89,1.15,3.22s-0.38,2.41-1.15,3.22
		c-0.77,0.81-1.75,1.22-2.95,1.22c-1.21,0-2.2-0.41-2.96-1.22c-0.77-0.81-1.15-1.89-1.15-3.22c0-1.34,0.38-2.41,1.15-3.22
		S81.96,7.77,83.17,7.77z M83.16,15.68c0.86,0,1.56-0.3,2.11-0.91s0.82-1.46,0.82-2.55s-0.27-1.95-0.82-2.55
		c-0.55-0.61-1.25-0.91-2.09-0.91c-0.86,0-1.57,0.3-2.12,0.91s-0.83,1.46-0.83,2.55c0,1.09,0.28,1.94,0.83,2.55
		S82.31,15.68,83.16,15.68z"/>
	<path class="st1" d="M70.53,16.5h-6.4V7.91h6.21v1.02h-5.07v2.63H70v1.02h-4.74v2.91h5.27V16.5z"/>
</g>
</svg>
